<?xml version="1.0" encoding="UTF-8"?>
<svg id="Camada_1" data-name="Camada 1" xmlns="http://www.w3.org/2000/svg" viewBox="0 0 42 42">
  <defs>
    <style>
      .cls-1 {
        fill: #fff;
      }

      .cls-2 {
        fill: #841537;
      }
    </style>
  </defs>
  <g id="instagram">
    <path class="cls-2" d="M34.72,18.19c-.65-1.91-.62-4.06-1.46-5.99-1.29-3.09-4.7-5.11-8.03-4.72-2.68.33-5.1,2.19-7.66.79-1.42-.7-2.83-1.74-4.46-1.83-3.8-.17-5.6,3.01-5.16,6.49.06,1.14.1,2.28-.18,3.39-.43,1.86-1.77,3.66-2.11,5.67-.61,3.07.75,6.44,3.39,8.15,3.34,2.42,6.98.13,9.94,2.36,1.17.86,2.17,2.07,3.53,2.65,2.19,1.01,4.82.13,6.19-1.8.98-1.3,1.83-2.75,3.15-3.76,1.22-1,2.82-1.72,3.73-3.02,2.01-2.74.12-5.6-.85-8.31l-.02-.06Z"/>
    <g>
      <circle class="cls-1" cx="20.84" cy="20.59" r="3.37" transform="translate(-.56 40.59) rotate(-87.7)"/>
      <path class="cls-1" d="M25.46,12.78c-1.5-.21-7.76-.25-9.16.04-1.64.33-2.76,1.81-2.99,3.43-.24,1.78-.23,6.63-.02,8.44.2,1.75,1.4,3.25,3.2,3.47,1.87.23,7.12.23,8.99,0,1.8-.22,3.02-1.72,3.2-3.47.2-1.88.23-6.63,0-8.47-.21-1.7-1.53-3.19-3.24-3.43ZM21.93,25.41c-7.02,1.2-8.02-8.62-2.19-9.62,7.01-1.21,8.07,8.62,2.19,9.62ZM25.87,16.91c-.74,0-1.34-.6-1.34-1.34s.6-1.34,1.34-1.34,1.34.6,1.34,1.34-.6,1.34-1.34,1.34Z"/>
    </g>
  </g>
</svg>